# xmcd
#
# Track frame offsets: 
#        183
#        17685
#        36723
#        53780
#        72713
#        86358
#        98043
#        105010
#        120968
#        135000
#        151598
#        166018
#
# Disc length: 2423 seconds
#
# Revision: 3
# Processed by: cddbd v1.4PL0 Copyright (c) Steve Scherf et al.
# Submitted via: ExactAudioCopy v0.95a3
#
DISCID=8009750c
DTITLE=The Radios - The Sound Of Music
DYEAR=1992
DGENRE=Pop
TTITLE0=Think Of You
TTITLE1=Because She Said So
TTITLE2=She Goes Nana
TTITLE3=Dreaming Wild
TTITLE4=Walking The Thin Line
TTITLE5=Oh No!
TTITLE6=Sleepless Nights
TTITLE7=She's My Lover (She's My Friend)
TTITLE8=Devil In My Cheekbone
TTITLE9=S.O.S. To An Angel
TTITLE10=Bang Bang
TTITLE11=In The Nighttime
EXTD=
EXTT0=
EXTT1=
EXTT2=
EXTT3=
EXTT4=
EXTT5=
EXTT6=
EXTT7=
EXTT8=
EXTT9=
EXTT10=
EXTT11=
PLAYORDER=
